<?xml version="1.0" encoding="UTF-8" standalone="no"?>
<!DOCTYPE svg PUBLIC "-//W3C//DTD SVG 1.1//EN" "http://www.w3.org/Graphics/SVG/1.1/DTD/svg11.dtd">
<svg version="1.1" xmlns="http://www.w3.org/2000/svg" xmlns:xlink="http://www.w3.org/1999/xlink" preserveAspectRatio="xMidYMid meet" viewBox="0 0 640 640" width="640" height="640"><defs><path d="M80 530.31C80 573.94 113.51 600 169.68 600C230.73 600 271.04 568.65 320 568.65C369.39 568.65 409.81 600 470.33 600C526.49 600 560 573.94 560 530.31C560 433.45 419.26 280 320 280C220.74 280 80 433.45 80 530.31ZM46.45 201.58C10.05 210.28 -8.91 252.44 4.09 295.75C17.09 339.06 57.14 367.11 93.54 358.41C129.94 349.71 148.9 307.55 135.9 264.24C122.9 220.93 82.85 192.87 46.45 201.58ZM285.02 121.56C270.22 67.29 226.87 31.55 188.2 41.72C149.53 51.9 130.18 104.15 144.98 158.42C159.78 212.7 203.14 248.45 241.8 238.26C280.48 228.09 299.83 175.84 285.02 121.56ZM504.09 264.25C491.09 307.56 510.05 349.73 546.45 358.43C582.85 367.13 622.89 339.08 635.9 295.76C648.9 252.45 629.94 210.29 593.54 201.59C557.14 192.89 517.1 220.94 504.09 264.25ZM495.02 158.42C509.82 104.15 490.47 51.91 451.8 41.72C413.12 31.54 369.77 67.29 354.98 121.56C340.17 175.84 359.52 228.09 398.2 238.26C436.87 248.44 480.22 212.7 495.02 158.42Z" id="a1iziXbAt2"></path></defs><g><g><g><use xlink:href="#a1iziXbAt2" opacity="0.05" fill="#000000" fill-opacity="1"></use><g><use xlink:href="#a1iziXbAt2" opacity="0.05" fill-opacity="0" stroke="#000000" stroke-width="1" stroke-opacity="0"></use></g></g></g></g></svg>